<svg width="240" height="72" viewBox="0 0 240 72" fill="none" xmlns="http://www.w3.org/2000/svg" role="img" aria-labelledby="title desc">
  <title id="title">Tingi Petroleum</title>
  <desc id="desc">Fuel droplet mark with Tingi Petroleum wordmark.</desc>
  <path d="M37.8 5.5C25.4 18.7 15 32.5 15 45.1C15 58.1 25.2 68 38.1 68C51 68 61.4 58.1 61.4 45.1C61.4 32.4 50.4 18.4 37.8 5.5Z" fill="#FFD800"/>
  <path d="M39.8 19.6C32.4 28.1 26.6 37 26.6 45C26.6 52.5 31.8 58.1 39 58.1C46.5 58.1 52.1 52.5 52.1 45C52.1 36.7 46.8 28 39.8 19.6Z" fill="#003366"/>
  <path d="M39.2 32.2C35.4 37.2 32.7 41.7 32.7 45.7C32.7 49.7 35.3 52.6 39.1 52.6C42.9 52.6 45.6 49.7 45.6 45.7C45.6 41.6 43.1 37.1 39.2 32.2Z" fill="#F2F2F2"/>
  <g fill="#003366">
    <path d="M78.5 21.2H67.7V13H98.8V21.2H88V59H78.5V21.2Z"/>
    <path d="M105.1 13H114.7V59H105.1V13Z"/>
    <path d="M124.2 13H132.9L152.8 42.1V13H162.1V59H154.1L133.5 28.8V59H124.2V13Z"/>
    <path d="M193.8 59.8C180 59.8 170 49.6 170 36.1V36C170 22.9 180.3 12.2 193.7 12.2C201.6 12.2 206.3 14.4 210.9 18.2L204.9 25.4C201.5 22.6 198.4 21 193.4 21C185.9 21 180.1 27.6 180.1 35.8V36C180.1 44.8 185.9 51.1 194.1 51.1C197.8 51.1 201.1 50.2 203.7 48.3V41.8H193.4V33.6H212.9V52.7C208.4 56.5 202.3 59.8 193.8 59.8Z"/>
    <path d="M221.4 13H231V59H221.4V13Z"/>
  </g>
  <text x="68" y="69" fill="#003366" font-family="Arial, sans-serif" font-size="10" font-weight="700" letter-spacing="5">PETROLEUM</text>
</svg>
