<svg width="1800" height="1200" viewBox="0 0 1800 1200" fill="none" xmlns="http://www.w3.org/2000/svg">
  <rect width="1800" height="1200" fill="#06192b"/>
  <path d="M0 0H1800V1200H0V0Z" fill="url(#sky)"/>
  <path d="M0 734C227 661 405 655 625 716C832 773 1038 813 1230 739C1396 675 1612 676 1800 760V1200H0V734Z" fill="#02101e" opacity=".84"/>
  <path d="M0 803C252 727 460 732 657 789C895 858 1077 869 1295 794C1453 740 1644 758 1800 837V1200H0V803Z" fill="#003366" opacity=".72"/>
  <g opacity=".45">
    <path d="M131 714H1674" stroke="#FFD800" stroke-width="3"/>
    <path d="M152 774H1648" stroke="#F2F2F2" stroke-opacity=".25" stroke-width="2"/>
    <path d="M174 835H1616" stroke="#F2F2F2" stroke-opacity=".18" stroke-width="2"/>
  </g>
  <g transform="translate(1010 354)">
    <rect x="0" y="155" width="282" height="204" rx="5" fill="#dce2e7"/>
    <ellipse cx="141" cy="156" rx="141" ry="54" fill="#f4f6f8"/>
    <path d="M0 155C19 204 263 204 282 155V357C263 407 19 407 0 357V155Z" fill="#b8c2cd"/>
    <ellipse cx="141" cy="357" rx="141" ry="54" fill="#8f9ba7"/>
    <path d="M47 185H235V336H47V185Z" fill="#003366" opacity=".2"/>
    <path d="M47 221H235" stroke="#003366" stroke-opacity=".42" stroke-width="7"/>
    <path d="M47 274H235" stroke="#003366" stroke-opacity=".42" stroke-width="7"/>
  </g>
  <g transform="translate(1292 412)">
    <rect x="0" y="88" width="216" height="260" rx="4" fill="#f2f2f2"/>
    <ellipse cx="108" cy="88" rx="108" ry="43" fill="#ffffff"/>
    <path d="M0 88C14 127 202 127 216 88V348C202 388 14 388 0 348V88Z" fill="#c5ced8"/>
    <ellipse cx="108" cy="348" rx="108" ry="43" fill="#929faa"/>
    <path d="M34 126H182V318H34V126Z" fill="#FFD800" opacity=".85"/>
    <path d="M64 153H152V290H64V153Z" fill="#003366" opacity=".85"/>
  </g>
  <g transform="translate(418 562)">
    <rect x="52" y="93" width="420" height="132" rx="18" fill="#FFD800"/>
    <rect x="129" y="34" width="176" height="75" rx="8" fill="#f6f7f7"/>
    <rect x="306" y="63" width="110" height="46" rx="8" fill="#003366"/>
    <path d="M44 182H492" stroke="#003366" stroke-width="20" stroke-linecap="round"/>
    <circle cx="139" cy="229" r="45" fill="#06192b"/>
    <circle cx="139" cy="229" r="22" fill="#a9b4bf"/>
    <circle cx="400" cy="229" r="45" fill="#06192b"/>
    <circle cx="400" cy="229" r="22" fill="#a9b4bf"/>
    <path d="M171 93H289V130H171V93Z" fill="#003366"/>
    <path d="M325 90H384V130H325V90Z" fill="#f2f2f2"/>
    <path d="M63 128H124V172H63V128Z" fill="#003366"/>
  </g>
  <g opacity=".55" stroke="#FFD800" stroke-width="10" stroke-linecap="round">
    <path d="M1552 470V199"/>
    <path d="M1586 470V263"/>
    <path d="M1620 470V327"/>
    <path d="M1513 201H1662"/>
  </g>
  <g opacity=".32" stroke="#F2F2F2" stroke-width="4">
    <path d="M271 830L381 702H547"/>
    <path d="M1276 723H1448L1548 611"/>
    <path d="M706 770L812 646H987"/>
  </g>
  <defs>
    <linearGradient id="sky" x1="0" y1="0" x2="1800" y2="1200" gradientUnits="userSpaceOnUse">
      <stop stop-color="#003366"/>
      <stop offset=".45" stop-color="#0b2d4c"/>
      <stop offset="1" stop-color="#000000"/>
    </linearGradient>
  </defs>
</svg>
